<svg id="Layer_1" height="512" viewBox="0 0 66 66" width="512" xmlns="http://www.w3.org/2000/svg">
<g style='fill: #fff'><g>
<path d="m54.3 47.1c.7.1 1.3.4 1.8.8l3.9-9.2c-.7-.1-1.3-.4-1.9-.8z"/></g><g>
<path d="m38 57.9c.4.6.6 1.2.8 1.9l9.4-3.9c-.4-.5-.6-1.2-.8-1.8z"/></g><g>
<path d="m17.9 55.7 9.7 4c.1-.7.4-1.3.8-1.9l-9.7-4.1c-.2.8-.5 1.4-.8 2z"/></g><g>
<path d="m12.1 47.1-3.9-9.4c-.5.4-1 .7-1.8.9l3.8 9.1c.6-.3 1.3-.6 1.9-.6z"/></g><g>
<path d="m12.1 18.8c-.6-.1-1.3-.3-1.9-.6l-3.8 9.2c.7.2 1.3.5 1.8.9z"/></g><g>
<path d="m18.6 12 9.7-4c-.4-.6-.6-1.2-.8-1.8l-9.7 4c.4.6.7 1.3.8 1.8z"/></g><g>
<path d="m48.2 10.1-9.3-3.9c-.1.7-.4 1.3-.7 1.8l9.3 3.9c.1-.7.3-1.3.7-1.8z"/></g><g>
<path d="m54.3 18.8 3.9 9.4c.5-.3 1.1-.6 1.8-.8l-3.9-9.4c-.5.4-1.2.7-1.8.8z"/></g><g>
<path d="m45.5 43.8c2.4-2.7 3.9-6.1 4.1-9.9h5.9c-.1-.6-.1-1.3 0-2h-5.9c-.2-3.8-1.7-7.2-4.1-9.9l4.2-4.2c-.6-.4-1-.9-1.4-1.4l-4.2 4.2c-2.7-2.4-6.1-3.9-9.9-4.1v-5.8c-.3.1-.7.1-1 .1-.3 0-.7 0-1-.1v5.8c-3.8.2-7.2 1.7-9.9 4.1l-4.5-4.5c-.3.5-.7 1-1.3 1.5l4.4 4.4c-2.4 2.7-3.9 6.1-4.1 9.9h-6.3c.1.7.1 1.3 0 2h6.3c.2 3.8 1.8 7.2 4.1 9.9l-4.4 4.4c.5.4 1 .9 1.3 1.5l4.5-4.5c2.7 2.4 6.1 3.9 9.9 4.1v5.9c.3-.1.6-.1 1-.1s.7 0 1 .1v-5.9c3.8-.2 7.2-1.8 9.9-4.1l4.2 4.2c.4-.5.9-1 1.4-1.4zm-.2-3.6c-.1-1.2-.8-2.3-1.8-2.9-1.7-.9-3.4-1.7-5.1-2.2-.5-.1-.9.1-1.2.5l-3.3 5.9h-1.3l-3.2-5.8c-.2-.4-.7-.6-1.1-.5-1.7.5-3.4 1.2-5.1 2.1-1.1.6-1.8 1.7-1.9 2.9v.7c-1.5-2.3-2.4-5-2.4-7.9 0-8 6.6-14.5 14.5-14.5 8 0 14.5 6.5 14.5 14.5s0 0 0 0c0 2.9-.9 5.7-2.4 7.9z"/></g><g>
<path d="m33.2 22.1c-3.2 0-5.7 2.6-5.7 5.7 0 3.3 2.6 7.2 5.7 7.2s5.7-3.9 5.7-7.2c0-3.1-2.5-5.7-5.7-5.7z"/></g><g>
<path d="m8.4 32c-.5-1.7-1.9-2.8-3.6-2.8-2.1 0-3.8 1.7-3.8 3.8 0 2.2 1.8 3.8 3.8 3.8 2.4 0 4.3-2.3 3.6-4.8z"/></g><g>
<path d="m12 49.1c-1.7.4-2.9 1.9-2.9 3.7 0 2.1 1.7 3.8 3.8 3.8s3.8-1.7 3.8-3.8c0-2.6-2.5-4.3-4.7-3.7z"/></g><g>
<path d="m15.9 15.4c1.9-2.5.1-6.1-3-6.1-2.1 0-3.8 1.7-3.8 3.8.1 3.6 4.6 5.2 6.8 2.3z"/></g><g>
<path d="m33.2 8.8c2.1 0 3.8-1.7 3.8-3.8s-1.7-3.8-3.8-3.8-3.8 1.7-3.8 3.8 1.7 3.8 3.8 3.8z"/></g><g>
<path d="m33.2 57.2c-2.1 0-3.8 1.7-3.8 3.8s1.7 3.8 3.8 3.8 3.8-1.7 3.8-3.8-1.7-3.8-3.8-3.8z"/></g><g>
<path d="m53.1 49c-2.1 0-3.8 1.7-3.8 3.8s1.7 3.8 3.8 3.8 3.8-1.7 3.8-3.8c-.1-2.1-1.7-3.8-3.8-3.8z"/></g><g>
<path d="m54.5 16.6c1.4-.6 2.4-2 2.4-3.5 0-2.1-1.7-3.8-3.8-3.8s-3.8 1.7-3.8 3.8c0 2.6 2.6 4.5 5.2 3.5z"/></g>
<path d="m59.8 29.5c-1.4.6-2.3 1.9-2.3 3.5 0 2.1 1.7 3.8 3.8 3.8s3.8-1.7 3.8-3.8c-.1-2.7-2.9-4.5-5.3-3.5z"/></g>
</svg>