<?xml version="1.0"?>
<svg xmlns="http://www.w3.org/2000/svg" id="Layer_3" data-name="Layer 3" viewBox="0 0 64 64" width="512" height="512">
<path style='fill: #fff' d="M61,61V42a1,1,0,0,0-1-1H59V6a1,1,0,0,0-1-1H55V2a1,1,0,0,0-1-1H42a1,1,0,0,0-1,1V5H38a1,1,0,0,0-1,1V23H30a1,1,0,0,0-1,1V43H27V24a1,1,0,0,0-1-1H4a1,1,0,0,0-1,1V61H1v2H63V61ZM34,57H18V45H34ZM18,59H34v2H18ZM36,49h8v2H36Zm9-38V23H43V11Zm6,30V11h2V41ZM49,23H47V11h2Zm0,2v8H41V25Zm0,10v2H31V35Zm0,4v2H45a1,1,0,0,0-1,1v5H41V39ZM36,53h8v8H36ZM46,43H59V61H46Zm9-2V11h2V41ZM42,7a1,1,0,0,0,1-1V3H53V6a1,1,0,0,0,1,1h3V9H39V7Zm-3,4h2V23H39Zm0,14v8H31V25ZM31,39h8v8H36V44a1,1,0,0,0-1-1H31ZM5,25H25V43H17a1,1,0,0,0-1,1V61H5Z"/>
<path style='fill: #fff' d="M13,35H9a1,1,0,0,0-1,1v4a1,1,0,0,0,1,1h4a1,1,0,0,0,1-1V36A1,1,0,0,0,13,35Zm-1,4H10V37h2Z"/>
<path style='fill: #fff' d="M17,41h4a1,1,0,0,0,1-1V36a1,1,0,0,0-1-1H17a1,1,0,0,0-1,1v4A1,1,0,0,0,17,41Zm1-4h2v2H18Z"/>
<path style='fill: #fff' d="M13,27H9a1,1,0,0,0-1,1v4a1,1,0,0,0,1,1h4a1,1,0,0,0,1-1V28A1,1,0,0,0,13,27Zm-1,4H10V29h2Z"/>
<path style='fill: #fff' d="M17,33h4a1,1,0,0,0,1-1V28a1,1,0,0,0-1-1H17a1,1,0,0,0-1,1v4A1,1,0,0,0,17,33Zm1-4h2v2H18Z"/>
<path style='fill: #fff' d="M13,43H9a1,1,0,0,0-1,1v4a1,1,0,0,0,1,1h4a1,1,0,0,0,1-1V44A1,1,0,0,0,13,43Zm-1,4H10V45h2Z"/>
<path style='fill: #fff' d="M13,51H9a1,1,0,0,0-1,1v4a1,1,0,0,0,1,1h4a1,1,0,0,0,1-1V52A1,1,0,0,0,13,51Zm-1,4H10V53h2Z"/>
<rect style='fill: #fff' x="48" y="47" width="9" height="2"/>
<rect style='fill: #fff' x="48" y="51" width="9" height="2"/>
<rect style='fill: #fff' x="48" y="55" width="9" height="2"/>
<path style='fill: #fff' d="M21,55H31a1,1,0,0,0,1-1V48a1,1,0,0,0-1-1H21a1,1,0,0,0-1,1v6A1,1,0,0,0,21,55Zm9-2H27V49h3Zm-8-4h3v4H22Z"/>
<path style='fill: #fff' d="M7,18a3,3,0,0,0,3-3,2.951,2.951,0,0,0-.3-1.285L13.715,9.7a2.893,2.893,0,0,0,2.57,0L19.3,12.715A2.951,2.951,0,0,0,19,14a3,3,0,0,0,6,0,2.951,2.951,0,0,0-.3-1.285L30.715,6.7A2.951,2.951,0,0,0,32,7a3,3,0,1,0-3-3,2.951,2.951,0,0,0,.3,1.285L23.285,11.3a2.893,2.893,0,0,0-2.57,0L17.7,8.285A2.951,2.951,0,0,0,18,7a3,3,0,0,0-6,0,2.951,2.951,0,0,0,.3,1.285L8.285,12.3A2.951,2.951,0,0,0,7,12a3,3,0,0,0,0,6ZM32,3a1,1,0,1,1-1,1A1,1,0,0,1,32,3ZM23,14a1,1,0,1,1-1-1A1,1,0,0,1,23,14ZM15,6a1,1,0,1,1-1,1A1,1,0,0,1,15,6ZM7,14a1,1,0,1,1-1,1A1,1,0,0,1,7,14Z"/>
</svg>
